<?xml version="1.0" encoding="UTF-8" standalone="no"?>
<svg width="375px" height="12px" viewBox="0 0 375 12" version="1.1" xmlns="http://www.w3.org/2000/svg" xmlns:xlink="http://www.w3.org/1999/xlink">
    <!-- Generator: Sketch 44.1 (41455) - http://www.bohemiancoding.com/sketch -->
    <title>品牌/灰色Flowerplus</title>
    <desc>Created with Sketch.</desc>
    <defs></defs>
    <g id="主页" stroke="none" stroke-width="1" fill="none" fill-rule="evenodd">
        <g id="主页-微信" transform="translate(0.000000, -1407.000000)">
            <rect id="Rectangle-6" fill="#FFFFFF" x="0" y="72" width="375" height="2928"></rect>
            <g id="花瓶-栏目" transform="translate(0.000000, 1412.000000)" fill="#FFFFFF">
                <rect id="Rectangle-4" x="0" y="0" width="375" height="548"></rect>
            </g>
            <g id="产品系列" transform="translate(0.000000, 558.000000)" fill="#FFFFFF">
                <rect id="Rectangle-5" x="0" y="0" width="375" height="854"></rect>
            </g>
            <g id="分割线" transform="translate(0.000000, 1407.000000)">
                <g id="品牌/灰色Flowerplus" transform="translate(152.000000, 0.000000)" fill="#DDDDDD">
                    <g id="logo-ddd">
                        <path d="M0,2.9248 C0,2.80621176 0.0951274017,2.69854118 0.226726574,2.69854118 L5.15906355,2.69854118 C5.28991073,2.69854118 5.38579013,2.80621176 5.38579013,2.9248 L5.38579013,4.22550588 C5.38579013,4.34447059 5.28991073,4.45214118 5.15906355,4.45214118 L1.85893231,4.45214118 L1.85893231,6.16997647 L4.57513923,6.16997647 C4.69470647,6.16997647 4.8018658,6.27727059 4.8018658,6.39698824 L4.8018658,7.69694118 C4.8018658,7.81628235 4.69470647,7.92357647 4.57513923,7.92357647 L1.85893231,7.92357647 L1.85893231,10.8227765 C1.85893231,10.9421176 1.75177298,11.0494118 1.63220573,11.0494118 L0.226726574,11.0494118 C0.0951274017,11.0494118 0,10.9421176 0,10.8227765 L0,2.9248 Z" id="Fill-1"></path>
                        <path d="M6.62639432,2.9248 C6.62639432,2.80621176 6.72152173,2.69854118 6.8531209,2.69854118 L8.27100798,2.69854118 C8.38982323,2.69854118 8.49735856,2.80621176 8.49735856,2.9248 L8.49735856,9.29543529 L11.3327567,9.29543529 C11.4639799,9.29543529 11.5591073,9.40272941 11.5591073,9.52207059 L11.5591073,10.8227765 C11.5591073,10.9421176 11.4639799,11.0494118 11.3327567,11.0494118 L6.8531209,11.0494118 C6.72152173,11.0494118 6.62639432,10.9421176 6.62639432,10.8227765 L6.62639432,2.9248 Z" id="Fill-3"></path>
                        <path d="M16.3382628,9.25974588 C17.6489906,9.25974588 18.7213359,8.18605176 18.7213359,6.88609882 C18.7213359,5.57372235 17.6489906,4.48760471 16.3382628,4.48760471 C15.039567,4.48760471 13.9675978,5.57372235 13.9675978,6.88609882 C13.9675978,8.18605176 15.039567,9.25974588 16.3382628,9.25974588 M16.3382628,2.57927529 C18.7213359,2.57927529 20.6276439,4.49965176 20.6276439,6.88609882 C20.6276439,9.27179294 18.7213359,11.1688282 16.3382628,11.1688282 C13.9555658,11.1688282 12.0609137,9.27179294 12.0609137,6.88609882 C12.0609137,4.49965176 13.9555658,2.57927529 16.3382628,2.57927529" id="Fill-5"></path>
                        <path d="M21.3092148,2.98473412 C21.2614631,2.81758118 21.3569665,2.69861647 21.5235334,2.69861647 L22.9177327,2.69861647 C23.0128601,2.69861647 23.1087395,2.78181647 23.1324273,2.86576941 L24.1570209,6.90981647 L24.2043966,6.90981647 L26.051673,2.71028706 C26.0873927,2.63875765 26.1588323,2.57927529 26.2539597,2.57927529 L26.4682783,2.57927529 C26.5754377,2.57927529 26.6468772,2.63875765 26.6705651,2.71028706 L28.5178414,6.90981647 L28.5652171,6.90981647 L29.5898107,2.86576941 C29.6134986,2.78181647 29.7093779,2.69861647 29.8045054,2.69861647 L31.1987046,2.69861647 C31.3652715,2.69861647 31.4611509,2.81758118 31.4130232,2.98473412 L29.1611734,11.0012988 C29.1374855,11.0972988 29.0419821,11.1688282 28.9468547,11.1688282 L28.7562239,11.1688282 C28.6723765,11.1688282 28.589281,11.1085929 28.5539372,11.03744 L26.3731509,6.15838118 L26.3374312,6.15838118 L24.1686768,11.03744 C24.132957,11.1085929 24.0498615,11.1688282 23.9663901,11.1688282 L23.7757593,11.1688282 C23.6806319,11.1688282 23.5847525,11.0972988 23.5610646,11.0012988 L21.3092148,2.98473412 Z" id="Fill-8"></path>
                        <path d="M32.5713591,2.9248 C32.5713591,2.80621176 32.6664866,2.69854118 32.7980857,2.69854118 L37.7304227,2.69854118 C37.8612699,2.69854118 37.9571493,2.80621176 37.9571493,2.9248 L37.9571493,4.22550588 C37.9571493,4.34447059 37.8612699,4.45214118 37.7304227,4.45214118 L34.4302915,4.45214118 L34.4302915,5.93129412 L37.1464984,5.93129412 C37.2660656,5.93129412 37.3732249,6.03858824 37.3732249,6.15830588 L37.3732249,7.45863529 C37.3732249,7.58964706 37.2660656,7.68564706 37.1464984,7.68564706 L34.4302915,7.68564706 L34.4302915,9.29543529 L37.7304227,9.29543529 C37.8612699,9.29543529 37.9571493,9.40272941 37.9571493,9.52207059 L37.9571493,10.8227765 C37.9571493,10.9421176 37.8612699,11.0494118 37.7304227,11.0494118 L32.7980857,11.0494118 C32.6664866,11.0494118 32.5713591,10.9421176 32.5713591,10.8227765 L32.5713591,2.9248 Z" id="Fill-11"></path>
                        <path d="M43.0941418,6.2656 C43.5829387,6.2656 43.9995441,5.87143529 43.9995441,5.31124706 C43.9995441,4.75030588 43.5829387,4.40470588 43.0941418,4.40470588 L41.3310889,4.40470588 L41.3310889,6.2656 L43.0941418,6.2656 Z M39.4601246,2.9248 C39.4601246,2.80621176 39.555252,2.69854118 39.6864752,2.69854118 L43.2490528,2.69854118 C44.7620673,2.69854118 45.8464445,3.85581176 45.8464445,5.27548235 C45.8464445,6.37289412 45.1910806,7.25534118 44.0830155,7.67322353 L45.7155973,10.7034353 C45.7990688,10.8581647 45.7155973,11.0494118 45.5125586,11.0494118 L43.9281045,11.0494118 C43.8329771,11.0494118 43.7615376,10.9899294 43.7374737,10.9421176 L42.1530197,7.78051765 L41.3310889,7.78051765 L41.3310889,10.8224 C41.3310889,10.9421176 41.2235535,11.0494118 41.1043623,11.0494118 L39.6864752,11.0494118 C39.555252,11.0494118 39.4601246,10.9421176 39.4601246,10.8224 L39.4601246,2.9248 Z" id="Fill-13"></path>
                        <path d="M51.0082528,6.27738353 C51.5207376,6.27738353 51.8779353,5.87154824 51.8779353,5.33470118 C51.8779353,4.83399529 51.5207376,4.45187765 51.0082528,4.45187765 L49.2079761,4.45187765 L49.2079761,6.27738353 L51.0082528,6.27738353 Z M47.3494198,2.92491294 C47.3494198,2.80594824 47.4445472,2.69865412 47.5757704,2.69865412 L51.0439726,2.69865412 C52.6163947,2.69865412 53.7128038,3.89168941 53.7128038,5.33470118 C53.7128038,6.81423059 52.6163947,8.01893647 51.0556285,8.01893647 L49.2079761,8.01893647 L49.2079761,10.8225129 C49.2079761,10.9422306 49.1008168,11.0495247 48.9816255,11.0495247 L47.5757704,11.0495247 C47.4445472,11.0495247 47.3494198,10.9422306 47.3494198,10.8225129 L47.3494198,2.92491294 Z" id="Fill-15"></path>
                        <path d="M54.9182522,2.9248 C54.9182522,2.80621176 55.0133796,2.69854118 55.1449788,2.69854118 L56.5628659,2.69854118 C56.6820571,2.69854118 56.7892164,2.80621176 56.7892164,2.9248 L56.7892164,9.29543529 L59.6246146,9.29543529 C59.7558378,9.29543529 59.8509652,9.40272941 59.8509652,9.52207059 L59.8509652,10.8227765 C59.8509652,10.9421176 59.7558378,11.0494118 59.6246146,11.0494118 L55.1449788,11.0494118 C55.0133796,11.0494118 54.9182522,10.9421176 54.9182522,10.8227765 L54.9182522,2.9248 Z" id="Fill-17"></path>
                        <path d="M60.7579467,2.9248 C60.7579467,2.80621176 60.865106,2.69854118 60.9846732,2.69854118 L62.449936,2.69854118 C62.5811592,2.69854118 62.6766626,2.80621176 62.6766626,2.9248 L62.6766626,7.90023529 C62.6766626,8.77063529 63.2959307,9.25967059 64.1419254,9.25967059 C64.999952,9.25967059 65.631252,8.77063529 65.631252,7.90023529 L65.631252,2.9248 C65.631252,2.80621176 65.7267554,2.69854118 65.8576026,2.69854118 L67.3232414,2.69854118 C67.4420566,2.69854118 67.549216,2.80621176 67.549216,2.9248 L67.549216,7.99548235 C67.549216,9.80856471 66.0241696,11.1687529 64.1419254,11.1687529 C62.2713372,11.1687529 60.7579467,9.80856471 60.7579467,7.99548235 L60.7579467,2.9248 Z" id="Fill-19"></path>
                        <path d="M69.0414754,10.2501647 C68.945972,10.1549176 68.9098762,10.0476235 68.9937237,9.89214118 L69.5419282,8.92536471 C69.6366796,8.77063529 69.8276864,8.77063529 69.9468777,8.85421176 C70.2800116,9.08084706 70.8879998,9.51002353 71.638491,9.51002353 C72.115256,9.51002353 72.4604219,9.21223529 72.4604219,8.79472941 C72.4604219,8.29364706 72.0201286,7.97138824 71.2335416,7.58964706 C70.0777249,7.02908235 68.9222841,6.38456471 68.9222841,4.9536 C68.9222841,3.77223529 69.8397184,2.5792 71.6742108,2.5792 C72.913499,2.5792 73.866653,3.21167059 74.2242268,3.47369412 C74.3671059,3.55764706 74.343418,3.77223529 74.2956663,3.85581176 L73.6880542,4.7744 C73.6045827,4.90541176 73.402296,5.00103529 73.1635375,4.8576 C72.8898112,4.66710588 72.1866956,4.21345882 71.5550196,4.21345882 C71.0545667,4.21345882 70.8282161,4.52329412 70.8282161,4.86964706 C70.8282161,5.26343529 71.2933252,5.57364706 72.127288,5.97872941 C73.1759454,6.49223529 74.5336728,7.07651765 74.5336728,8.69948235 C74.5336728,9.92828235 73.4737355,11.1687529 71.7219625,11.1687529 C70.1728523,11.1687529 69.3152017,10.5242353 69.0414754,10.2501647" id="Fill-21"></path>
                        <path d="M18.788865,1.30567529 C18.788865,1.42689882 18.6899777,1.52591059 18.5689064,1.52591059 L14.1201024,1.52591059 C13.9986552,1.52591059 13.8997678,1.42689882 13.8997678,1.30567529 L13.8997678,0.220310588 C13.8997678,0.0990870588 13.9986552,7.52941176e-05 14.1201024,7.52941176e-05 L18.5689064,7.52941176e-05 C18.6899777,7.52941176e-05 18.788865,0.0990870588 18.788865,0.220310588 L18.788865,1.30567529 Z" id="Fill-24"></path>
                    </g>
                </g>
                <g id="表单/分隔线" transform="translate(0.000000, 6.000000)" stroke="#E5E5E5" stroke-width="0.5" stroke-linecap="square">
                    <path d="M0.0893458665,0.748927534 L135.919479,0.748927534" id="Line"></path>
                </g>
                <g id="表单/分隔线" transform="translate(240.000000, 6.000000)" stroke="#E5E5E5" stroke-width="0.5" stroke-linecap="square">
                    <path d="M0.0886889116,0.748927534 L134.920071,0.748927534" id="Line"></path>
                </g>
            </g>
        </g>
    </g>
</svg>